<svg width="176" height="176" viewBox="0 0 176 176" fill="none" xmlns="http://www.w3.org/2000/svg">
<rect width="176" height="176" rx="24" fill="white"/>
<path d="M81.4156 31.5703L42.6504 43.5053L35.5664 70.1011L47.0776 64.9619L49.606 63.8345L50.2115 66.5361L52.3306 76.0117L53.8818 82.9213L48.6143 78.1914L44.8071 74.7705L37.973 82.6038L72.0384 115.541L74.377 105.687L76.2006 97.9672L78.7211 105.49L91.9736 145.11L130.708 138.738L141.788 89.5892L121.308 53.5716L81.4156 31.5703ZM67.4443 43.6494L60.7084 53.3141L59.9213 71.1004L53.3369 49.5602L67.4443 43.6494ZM71.7659 66.2712L99.1631 103.871L124.57 112.075L98.5654 111.871L71.7659 80.8707V66.2717V66.2712ZM45.2084 105.982L79.1449 143.067L77.7976 127.113L45.2084 105.982Z" fill="#171717"/>
</svg>
