<svg width="652" height="161" viewBox="0 0 652 161" fill="none" xmlns="http://www.w3.org/2000/svg">
<rect y="11.5" width="138" height="138" rx="18.8182" fill="#171717"/>
<path d="M63.8373 36.254L33.4418 45.6121L27.8873 66.4657L36.9131 62.436L38.8957 61.5521L39.3704 63.6704L41.032 71.1001L42.2483 76.5179L38.118 72.8092L35.1328 70.1269L29.7743 76.2689L56.4847 102.095L58.3183 94.368L59.7483 88.3152L61.7245 94.214L72.1157 125.28L102.487 120.283L111.175 81.7461L95.1166 53.505L63.8373 36.254ZM52.8825 45.7251L47.6009 53.3031L46.9838 67.2492L41.821 50.3597L52.8825 45.7251ZM56.271 63.4626L77.753 92.9441L97.6745 99.3771L77.2843 99.2168L56.271 74.91V63.463V63.4626ZM35.4475 94.5999L62.0568 123.678L61.0004 111.168L35.4475 94.5999Z" fill="white"/>
<path d="M206.673 119.703C194.563 119.703 185.657 116.617 179.953 110.445C174.328 104.273 171.516 96.1479 171.516 86.0695C171.516 75.913 173.234 66.6941 176.672 58.4126C180.188 50.0531 185.383 43.217 192.258 37.9043C199.134 32.5136 206.556 29.8182 214.525 29.8182C222.572 29.8182 228.861 31.7714 233.392 35.6777C238.002 39.5059 240.306 44.7014 240.306 51.264C240.306 57.7486 238.275 63.1393 234.212 67.4363C230.228 71.7333 225.54 73.8817 220.15 73.8817C214.759 73.8817 210.579 72.7098 207.61 70.366C204.641 67.9441 203.157 65.405 203.157 62.7487C203.157 60.0142 204.212 57.9048 206.321 56.4204C208.509 54.8579 211.673 54.0766 215.814 54.0766C214.798 55.0922 214.29 56.4595 214.29 58.1783C214.29 59.8189 214.798 61.2643 215.814 62.5143C216.829 63.7643 218.392 64.3893 220.501 64.3893C222.611 64.3893 224.72 63.2956 226.83 61.108C228.939 58.8423 229.994 55.8735 229.994 52.2015C229.994 48.5296 228.861 45.5998 226.595 43.4123C224.408 41.2247 221.283 40.131 217.22 40.131C211.907 40.131 207.063 42.2794 202.688 46.5764C198.391 50.8734 195.11 56.3423 192.844 62.9831C190.579 69.6238 189.446 76.6162 189.446 83.9601C189.446 90.2884 190.813 95.8745 193.547 100.718C194.954 103.218 197.024 105.211 199.759 106.695C202.571 108.179 205.852 108.922 209.603 108.922C216.009 108.922 222.181 106.89 228.119 102.828C234.056 98.687 239.056 93.3744 243.119 86.8899L247.103 94.0385C242.494 101.539 236.713 107.711 229.759 112.555C222.806 117.32 215.11 119.703 206.673 119.703ZM291.424 119.586C284.237 119.586 279.471 117.086 277.127 112.086C273.064 117.164 267.83 119.703 261.424 119.703C255.095 119.703 249.744 117.555 245.368 113.258C241.071 108.961 238.923 103.297 238.923 96.2651C238.923 86.0305 241.931 77.8662 247.947 71.7723C253.962 65.6784 261.58 62.6315 270.799 62.6315C271.033 62.6315 271.268 62.6315 271.502 62.6315C275.408 62.6315 279.002 63.2956 282.283 64.6237C284.393 63.2956 286.932 62.6315 289.901 62.6315C292.948 62.6315 295.135 63.0221 296.463 63.8034C295.76 69.5848 295.018 75.288 294.237 80.9132C293.456 86.4602 292.909 90.4056 292.596 92.7494C291.893 98.062 291.541 101.89 291.541 104.234C291.541 107.359 292.791 108.922 295.292 108.922C297.245 108.922 299.315 107.633 301.503 105.054C303.69 102.398 305.604 98.2573 307.245 92.6322C309.511 94.6635 311.073 96.9292 311.933 99.4292C309.667 106.851 306.62 112.086 302.792 115.133C298.963 118.102 295.174 119.586 291.424 119.586ZM272.557 71.7723C267.556 71.7723 263.572 73.6864 260.603 77.5146C257.712 81.2647 255.994 86.8899 255.447 94.39C255.369 95.0932 255.33 95.7573 255.33 96.3823C255.33 100.21 256.228 103.257 258.025 105.523C259.9 107.789 262.283 108.922 265.174 108.922C270.096 108.922 273.807 105.445 276.307 98.4917L279.119 73.1786C276.854 72.2411 274.666 71.7723 272.557 71.7723ZM316.368 62.5143C321.447 62.5143 324.415 63.8034 325.275 66.3816C328.947 63.8034 333.595 62.5143 339.22 62.5143C344.846 62.5143 349.689 64.819 353.752 69.4285C357.815 74.038 359.846 79.4288 359.846 85.6008C359.846 86.4602 359.807 87.3586 359.729 88.2962C358.869 98.5308 355.432 106.343 349.416 111.734C343.4 117.047 335.548 119.703 325.861 119.703C323.673 119.703 321.29 119.43 318.712 118.883L314.962 151.11H299.61C304.61 108.062 307.97 78.8428 309.689 63.4518C311.329 62.8268 313.556 62.5143 316.368 62.5143ZM343.322 86.4211C343.322 82.9835 342.541 79.9366 340.978 77.2803C339.416 74.624 336.994 73.2958 333.713 73.2958C329.259 73.2958 325.861 76.1865 323.517 81.9679C321.954 93.5306 321.056 100.25 320.822 102.125C320.743 104.468 321.486 106.226 323.048 107.398C324.611 108.57 326.525 109.156 328.791 109.156C332.775 109.156 336.056 107.359 338.635 103.765C341.76 99.312 343.322 93.5306 343.322 86.4211ZM414.491 83.1398C420.663 87.6711 423.749 93.0228 423.749 99.1948C423.749 105.367 421.327 110.328 416.484 114.078C411.64 117.828 405.546 119.703 398.202 119.703C393.436 119.703 389.452 118.531 386.249 116.187C383.123 113.766 381.561 110.797 381.561 107.281C381.561 103.765 382.733 100.992 385.077 98.9605C387.42 96.851 390.35 95.5619 393.866 95.0932C392.225 97.437 391.405 99.7027 391.405 101.89C391.405 104 392.147 105.718 393.632 107.047C395.116 108.375 396.991 109.039 399.257 109.039C401.522 109.039 403.397 108.218 404.882 106.578C406.366 104.859 407.108 102.906 407.108 100.718C407.108 97.1245 405.429 93.9213 402.069 91.1087C400.038 89.4681 397.85 87.9446 395.507 86.5383C393.163 85.0539 391.913 84.2726 391.756 84.1945C391.444 83.9601 391.131 83.7648 390.819 83.6085C389.413 85.2492 387.381 87.5149 384.725 90.4056C382.069 93.2181 379.959 95.4838 378.397 97.2026C374.022 101.968 371.561 105.953 371.014 109.156C370.858 109.781 370.779 110.992 370.779 112.789C370.779 114.508 371.287 116.305 372.303 118.18C373.397 120.055 374.686 121.461 376.17 122.399C377.655 123.336 379.1 124.078 380.506 124.625C381.991 125.25 383.241 125.68 384.256 125.914C385.35 126.149 385.897 126.305 385.897 126.383C385.897 126.93 385.038 127.555 383.319 128.258C380.116 129.43 376.756 130.016 373.24 130.016C369.803 130.016 366.443 128.766 363.162 126.266C358.709 122.828 356.482 118.258 356.482 112.555C356.482 109.039 357.381 105.562 359.178 102.125C362.381 96.0307 369.881 87.6711 381.678 77.0459C378.787 74.1552 377.342 71.0692 377.342 67.7879C377.342 64.5065 378.553 61.733 380.975 59.4673C383.475 57.2017 386.405 56.0688 389.764 56.0688C392.811 56.0688 395.468 57.2798 397.733 59.7017C399.218 61.3424 399.96 63.4128 399.96 65.9128C399.96 68.4129 399.139 71.2254 397.499 74.3505C405.858 78.1006 411.523 81.0304 414.491 83.1398ZM389.061 69.8973C390.936 67.9441 391.874 66.5378 391.874 65.6784C391.874 63.7253 391.014 62.6705 389.295 62.5143C387.342 62.5143 386.366 63.6081 386.366 65.7956C386.366 67.1238 387.264 68.491 389.061 69.8973ZM452.303 37.4356C452.303 37.9043 451.248 46.303 449.139 62.6315H466.365V71.6551H447.967L447.615 74.5849C456.756 82.2413 461.326 90.6009 461.326 99.6636C461.326 106.773 459.49 111.89 455.818 115.016C452.225 118.141 447.888 119.703 442.81 119.703C437.732 119.703 434.021 118.375 431.677 115.719C429.333 112.984 428.161 109.703 428.161 105.875C428.161 105.015 428.24 104.078 428.396 103.062L432.029 71.8895L431.56 71.6551H422.068C421.989 70.8739 421.95 69.6238 421.95 67.905C421.95 66.1081 422.302 64.3503 423.005 62.6315H433.083L436.834 30.7557C438.474 30.1307 440.662 29.8182 443.396 29.8182C449.334 29.8182 452.303 32.3573 452.303 37.4356ZM453.475 99.5464C453.475 94.1557 451.131 88.843 446.443 83.6085C445.037 95.2494 444.334 101.968 444.334 103.765C444.334 107.281 445.467 109.039 447.732 109.039C449.373 109.039 450.74 108.297 451.834 106.812C452.928 105.25 453.475 102.828 453.475 99.5464ZM496.806 62.6315C503.993 62.6315 509.97 64.9362 514.736 69.5457C519.58 74.1552 522.002 79.7803 522.002 86.4211C522.002 96.4995 519.033 104.586 513.095 110.679C507.236 116.695 500.126 119.703 491.766 119.703C483.407 119.703 476.766 117.32 471.844 112.555C467 107.789 464.578 101.89 464.578 94.8588C464.578 85.0148 467.586 77.2021 473.602 71.4208C479.696 65.5612 487.43 62.6315 496.806 62.6315ZM494.462 72.1239C490.79 72.1239 487.704 74.2333 485.204 78.4522C482.704 82.671 481.337 87.9836 481.102 94.39C481.102 98.9214 482.001 102.671 483.798 105.64C485.673 108.609 488.485 110.094 492.235 110.094C495.985 110.094 499.11 108.023 501.61 103.882C504.189 99.7417 505.478 95.0151 505.478 89.7024C505.478 84.3898 504.579 80.171 502.782 77.0459C500.985 73.7646 498.212 72.1239 494.462 72.1239ZM560.385 105.875L563.198 79.7413C563.198 77.6318 562.651 75.874 561.557 74.4677C560.463 73.0614 558.627 72.3583 556.049 72.3583C553.549 72.3583 551.4 73.4911 549.604 75.7568C547.885 77.9443 546.791 80.7178 546.322 84.0773C543.51 105.484 542.025 117.125 541.869 119H526.048L532.494 63.8034C535.775 62.944 538.275 62.5143 539.994 62.5143C545.228 62.5143 547.963 64.4284 548.197 68.2566C552.025 64.5065 556.596 62.6315 561.909 62.6315C567.299 62.6315 571.518 63.9596 574.565 66.616C577.612 69.2723 579.135 72.6317 579.135 76.6943C579.135 77.7881 578.901 79.8585 578.432 82.9054C576.635 94.7807 575.737 101.695 575.737 103.648C575.737 107.242 576.948 109.039 579.37 109.039C584.682 109.039 588.706 103.492 591.44 92.3978C594.097 95.2104 595.698 97.437 596.245 99.0777C592.105 112.828 584.917 119.703 574.682 119.703C569.838 119.703 566.245 118.219 563.901 115.25C561.557 112.281 560.385 109.156 560.385 105.875ZM609.553 92.7494C614.397 91.7337 617.99 89.7806 620.334 86.8899C622.756 83.9992 623.967 81.2257 623.967 78.5694C623.967 75.8349 623.225 73.9989 621.741 73.0614C620.334 72.0458 618.772 71.5379 617.053 71.5379C613.381 71.5379 610.139 73.6083 607.326 77.749C604.592 81.8116 603.224 86.6946 603.224 92.3978C603.224 98.0229 604.553 102.242 607.209 105.054C609.943 107.789 613.303 109.156 617.287 109.156C623.147 109.156 628.772 107.125 634.163 103.062C639.553 98.9995 643.929 93.6869 647.288 87.1242C649.007 88.7649 650.569 90.7962 651.976 93.2181C649.397 99.0777 644.827 104.82 638.264 110.445C634.983 113.18 631.077 115.406 626.545 117.125C622.092 118.844 617.483 119.703 612.717 119.703C604.904 119.703 598.732 117.32 594.201 112.555C589.357 107.398 586.935 100.796 586.935 92.7494C586.935 84.7023 589.943 77.6709 595.959 71.6551C602.053 65.6394 609.318 62.6315 617.756 62.6315C623.772 62.6315 628.655 63.9596 632.405 66.616C636.155 69.1941 638.069 72.7098 638.147 77.1631C638.147 83.1788 635.725 88.0618 630.881 91.8119C626.116 95.5619 619.553 98.1792 611.193 99.6636L609.553 92.7494Z" fill="#171717"/>
</svg>
